<svg width="38" height="38" viewBox="0 0 38 38" fill="none" xmlns="http://www.w3.org/2000/svg">
<path fill-rule="evenodd" clip-rule="evenodd" d="M32.101 31.8328C30.3101 33.6135 28.1743 35.0096 25.8247 35.9356C23.475 36.8615 20.961 37.2977 18.4368 37.2174C15.9126 37.1371 13.4314 36.542 11.1454 35.4687C8.8593 34.3953 6.81657 32.8663 5.14241 30.9754C6.39484 31.4982 7.72542 31.8094 9.07982 31.8963C11.3914 32.038 13.7078 31.7116 15.8902 30.9368C18.0727 30.162 20.0763 28.9546 21.7811 27.3871C22.3845 26.9107 24.5119 24.8466 24.9565 24.7196C25.7503 27.9269 26.5124 30.245 29.5925 31.4835C30.3565 31.7615 31.1611 31.9117 31.974 31.928L32.101 31.8328ZM34.8 9.25485C36.5978 12.2449 37.5157 15.6814 37.4483 19.1697C37.3809 22.658 36.3309 26.0565 34.419 28.9748C31.6564 28.562 31.2436 27.2283 29.529 22.338C29.1797 21.2265 28.2588 19.4165 28.8621 18.4956C29.4654 17.5747 32.6725 12.4304 34.8 9.25485ZM18.8916 0.141115C21.3615 0.157715 23.803 0.669285 26.0718 1.64559C28.3406 2.6219 30.3907 4.04313 32.101 5.82529H29.8782L26.2584 11.5095C24.8612 8.58799 23.9086 6.49215 20.8285 5.34896C13.43 2.55451 3.14195 9.98522 0.347656 18.178C0.480023 13.3482 2.49203 8.7607 5.95545 5.39198C9.41887 2.02325 14.0602 0.139301 18.8916 0.141115ZM22.0669 17.9875C19.7978 21.8397 16.7213 25.1547 13.049 27.7046C6.28553 31.4835 4.34857 24.8466 6.25377 19.0989C7.58741 15.0343 10.985 9.5724 14.2239 8.20693C14.767 7.89869 15.3722 7.71574 15.9952 7.67145C16.6181 7.62716 17.2431 7.72264 17.8244 7.95091C18.4057 8.17919 18.9287 8.5345 19.355 8.99085C19.7814 9.44721 20.1004 9.99308 20.2887 10.5886C21.38 12.9126 22.0159 15.4242 22.1622 17.9875H22.0669Z" fill="#2598D2"/>
</svg>
