<svg width="18" height="27" viewBox="0 0 18 27" fill="none" xmlns="http://www.w3.org/2000/svg">
<path d="M10.2799 18.6818C10.8014 18.6026 11.2643 18.5384 11.7245 18.4627C13.3306 18.1988 14.7941 17.6094 16.0772 16.6205C16.3181 16.4349 16.5428 16.2255 16.7602 16.0135C17.0661 15.7144 17.1834 15.3432 17.1302 14.9262C17.0291 14.1318 16.5365 13.5397 15.7894 13.3673C15.4357 13.2854 15.0928 13.3541 14.7697 13.4913C14.5568 13.5819 14.3457 13.6901 14.1598 13.8256C13.1321 14.5734 11.9762 15.0168 10.7238 15.2508C8.79919 15.6115 6.94585 15.3801 5.1665 14.6051C4.72257 14.4115 4.31653 14.1291 3.90689 13.8678C3.60371 13.6743 3.30144 13.4913 2.94773 13.3989C2.29356 13.2283 1.74406 13.4104 1.31276 13.8977C0.958149 14.298 0.791222 14.7828 0.882355 15.3115C0.91935 15.5261 1.03033 15.7514 1.172 15.9203C1.38404 16.1719 1.63668 16.3971 1.90016 16.6003C3.13812 17.5557 4.54391 18.1548 6.09588 18.4275C6.55064 18.5076 7.00992 18.5665 7.46648 18.636C7.52152 18.6439 7.57656 18.6554 7.65055 18.6686C7.60003 18.7222 7.56303 18.7627 7.52333 18.8005C5.88474 20.3964 4.25518 22.0001 2.60305 23.5819C1.92903 24.2268 1.9155 25.2455 2.56155 25.8842C3.06503 26.3821 3.61905 26.5809 4.31022 26.398C4.59354 26.3232 4.81912 26.1543 5.02304 25.9528C6.29258 24.7071 7.56303 23.4623 8.83348 22.2174C8.8813 22.1699 8.92281 22.1163 8.99499 22.0336C9.05454 22.1101 9.08973 22.1691 9.13755 22.2166C10.3909 23.4464 11.664 24.6578 12.892 25.9115C13.604 26.6381 14.7391 26.6434 15.4059 25.8789C15.8254 25.3977 15.9996 24.9015 15.8263 24.2954C15.7506 24.0306 15.5872 23.8177 15.3905 23.6259C13.7483 22.0265 12.107 20.4254 10.4648 18.826C10.4206 18.7829 10.3674 18.7495 10.2799 18.6826V18.6818Z" fill="white"/>
<path d="M9.00092 13.4046C12.7924 13.4653 15.8855 10.2877 15.8828 6.71329C15.881 3.08789 12.7446 -0.00351595 8.991 3.00129e-06C5.25455 0.00352196 2.11091 3.09053 2.11723 6.73089C2.12354 10.2877 5.20672 13.4662 9.00002 13.4046H9.00092ZM5.63171 6.71065C5.63442 4.87376 7.12773 3.40899 8.99912 3.40811C10.8777 3.40723 12.3719 4.87815 12.3692 6.72561C12.3665 8.55106 10.8741 10.0053 9.00182 10.0062C7.12232 10.0062 5.629 8.54667 5.63171 6.71153V6.71065Z" fill="white"/>
</svg>
