<svg width="28" height="22" viewBox="0 0 28 22" fill="none" xmlns="http://www.w3.org/2000/svg">
<path d="M24.8407 0.194222C24.8407 0.194222 27.3384 -0.758063 27.1303 1.55463C27.0609 2.50693 26.4365 5.83993 25.9508 9.44503L24.2857 20.1243C24.2857 20.1243 24.1469 21.6887 22.8981 21.9608C21.6492 22.2329 19.776 21.0085 19.429 20.7364C19.1515 20.5324 14.2255 17.4714 12.491 15.975C12.0053 15.5669 11.4502 14.7506 12.5603 13.7983L19.8453 6.99631C20.6779 6.18005 21.5105 4.27548 18.0414 6.58818L8.32815 13.0501C8.32815 13.0501 7.21806 13.7303 5.13668 13.1182L0.62692 11.7577C0.62692 11.7577 -1.03822 10.7374 1.80639 9.71708C8.74446 6.5201 17.2783 3.25512 24.8407 0.194222Z" fill="white"/>
</svg>
