<svg width="68" height="67" viewBox="0 0 68 67" fill="none" xmlns="http://www.w3.org/2000/svg">
<path d="M0.863281 0.695312H67.3299V67H0.863281V0.695312Z" fill="white" fill-opacity="0.01"/>
<path d="M0.863281 0.695312H67.3299V67H0.863281V0.695312Z" fill="white" fill-opacity="0.01"/>
<path d="M39.0803 26.3874V16.4417C39.0803 12.3221 35.7325 8.98242 31.6028 8.98242L21.6328 31.3603V58.7109H50.5956C53.0813 58.739 55.2079 56.9358 55.5806 54.484L59.0203 32.1062C59.2398 30.6636 58.8131 29.1979 57.8534 28.0968C56.8938 26.9959 55.4977 26.3708 54.0353 26.3874H39.0803Z" fill="#EDEDED" stroke="#224386" stroke-width="4" stroke-linejoin="round"/>
<path d="M21.6344 31.0848H14.9794C12.0595 31.0333 9.56334 33.4461 9.17188 36.3331V53.7381C9.56334 56.6251 12.0595 58.7624 14.9794 58.7109H21.6344V31.0848Z" fill="#EDEDED" stroke="#224386" stroke-width="4" stroke-linejoin="round"/>
</svg>
