<svg width="30" height="17" viewBox="0 0 30 17" fill="none" xmlns="http://www.w3.org/2000/svg">
<path d="M29.8554 15.9753C29.8303 16.0576 29.807 16.1418 29.7802 16.2242C29.6531 16.6323 29.3505 16.883 28.9226 16.8866C27.3578 16.8955 25.7931 16.9099 24.2301 16.8902C23.4101 16.8794 22.694 16.541 22.1193 15.9646C21.4676 15.3111 20.8625 14.6146 20.2233 13.9486C19.9619 13.6765 19.6898 13.4061 19.3854 13.1877C18.7731 12.7491 18.2521 12.8959 17.8959 13.5565C17.5396 14.2208 17.502 14.9494 17.4447 15.6745C17.3767 16.5267 17.1242 16.7953 16.2846 16.8615C12.5642 17.1515 9.43112 15.9431 6.92642 13.1591C5.18084 11.2183 3.80943 9.01801 2.58663 6.72637C1.73263 5.1258 0.964577 3.48048 0.180406 1.84589C-0.222422 1.00443 0.0497109 0.598023 0.993223 0.590861C2.3145 0.581909 3.63577 0.598023 4.95705 0.581909C5.65886 0.572958 6.11003 0.877316 6.37321 1.52184C7.02131 3.11704 7.79295 4.64957 8.74362 6.08722C9.03724 6.53302 9.34518 6.96986 9.6746 7.39059C9.85185 7.61617 10.0703 7.82206 10.3012 7.99215C10.8383 8.38781 11.2429 8.26607 11.4703 7.63408C11.5777 7.33509 11.6494 7.01641 11.6834 6.70131C11.8284 5.32453 11.8427 3.94776 11.6189 2.57635C11.4936 1.80471 11.0568 1.32132 10.2815 1.14945C9.87154 1.05993 9.84827 0.957882 10.1114 0.63741C10.4785 0.195195 10.9404 -0.00353319 11.5151 4.75028e-05C13.0118 0.00899923 14.5085 0.00362819 16.0035 0.00362819C16.938 0.00362819 17.3641 0.411827 17.3802 1.34818C17.3928 2.13414 17.3838 2.92189 17.3838 3.70964C17.3838 4.69075 17.3695 5.67186 17.3946 6.65297C17.4017 6.96628 17.4698 7.29391 17.5861 7.58395C17.8583 8.26607 18.3864 8.35559 18.8985 7.83281C19.7328 6.9806 20.4435 6.02814 20.9914 4.97362C21.5893 3.82243 22.1336 2.64081 22.6743 1.45918C23.0001 0.748411 23.2168 0.576538 24.0027 0.576538C25.5478 0.576538 27.0929 0.576538 28.6379 0.5837C29.1124 0.58549 29.5671 0.657104 29.8572 1.10648V1.63105C29.3773 3.12599 28.45 4.35954 27.5297 5.59666C26.8691 6.48468 26.1995 7.36732 25.5442 8.2607C24.7207 9.38145 24.7672 9.84873 25.7698 10.8191C26.4609 11.4887 27.1734 12.1368 27.8359 12.8332C28.654 13.6962 29.4991 14.5538 29.8572 15.7425V15.9753H29.8554Z" fill="white"/>
</svg>
