<svg width="75" height="74" viewBox="0 0 75 74" fill="none" xmlns="http://www.w3.org/2000/svg">
<path d="M65.211 9.25214H10.1398C8.45011 9.25214 7.08032 10.6218 7.08032 12.3114V52.0816C7.08032 53.7712 8.45011 55.1409 10.1398 55.1409H65.211C66.9008 55.1409 68.2705 53.7712 68.2705 52.0816V12.3114C68.2705 10.6218 66.9008 9.25214 65.211 9.25214Z" stroke="#224386" stroke-width="4" stroke-linecap="round" stroke-linejoin="round"/>
<path d="M19.3184 21.4891H56.0325" stroke="#224386" stroke-width="4" stroke-linecap="round" stroke-linejoin="round"/>
<path d="M19.3184 32.1965H28.4969" stroke="#224386" stroke-width="4" stroke-linecap="round" stroke-linejoin="round"/>
<path d="M19.3184 42.9039H25.4374" stroke="#224386" stroke-width="4" stroke-linecap="round" stroke-linejoin="round"/>
<path d="M46.854 50.552C51.9231 50.552 56.0325 46.443 56.0325 41.3743C56.0325 36.3055 51.9231 32.1965 46.854 32.1965C41.7848 32.1965 37.6754 36.3055 37.6754 41.3743C37.6754 46.443 41.7848 50.552 46.854 50.552Z" stroke="#224386" stroke-width="4"/>
<path d="M46.854 61.2601L52.973 64.3193V48.2158C52.973 48.2158 51.2282 50.5527 46.854 50.5527C42.4798 50.5527 40.735 48.2583 40.735 48.2583V64.3193L46.854 61.2601Z" fill="#EDEDED" stroke="#224386" stroke-width="4" stroke-linecap="round" stroke-linejoin="round"/>
</svg>
