<svg width="279" height="78" viewBox="0 0 279 78" fill="none" xmlns="http://www.w3.org/2000/svg">
<path d="M0 38.5352C0 17.2722 17.09 0.0351562 38.1716 0.0351562H240.828C261.91 0.0351562 279 17.2722 279 38.5352C279 59.7981 261.91 77.0352 240.828 77.0352H38.1716C17.09 77.0352 0 59.7981 0 38.5352Z" fill="white"/>
<path fill-rule="evenodd" clip-rule="evenodd" d="M82.3148 57.7647C79.7076 60.3792 76.5985 62.429 73.1779 63.7884C69.7574 65.1479 66.0977 65.7883 62.423 65.6704C58.7484 65.5526 55.1364 64.6789 51.8084 63.103C48.4805 61.5271 45.5067 59.2822 43.0696 56.5059C44.8928 57.2736 46.8298 57.7305 48.8015 57.858C52.1666 58.066 55.5387 57.5869 58.7158 56.4493C61.8929 55.3117 64.8098 53.5391 67.2916 51.2376C68.1698 50.5382 71.2669 47.5077 71.9141 47.3212C73.0697 52.0301 74.1791 55.4336 78.663 57.2519C79.7752 57.6601 80.9465 57.8807 82.1299 57.9046L82.3148 57.7647ZM86.2439 24.6159C88.8611 29.0058 90.1973 34.0514 90.0992 39.1729C90.0011 44.2943 88.4725 49.284 85.6892 53.5687C81.6676 52.9626 81.0667 51.0044 78.5705 43.8245C78.062 42.1927 76.7215 39.5352 77.5998 38.1832C78.4781 36.8311 83.1468 29.2782 86.2439 24.6159ZM63.0851 11.2352C66.6806 11.2595 70.2349 12.0106 73.5377 13.444C76.8406 14.8774 79.8251 16.9641 82.3148 19.5806H79.079L73.8093 27.9261C71.7754 23.6368 70.3886 20.5597 65.9048 18.8813C55.1343 14.7785 40.1574 25.6882 36.0896 37.7169C36.2822 30.6258 39.2113 23.8904 44.2532 18.9445C49.2951 13.9985 56.0517 11.2325 63.0851 11.2352ZM67.7076 37.4372C64.4042 43.093 59.9256 47.9601 54.5796 51.7038C44.7337 57.2519 41.9139 47.5077 44.6874 39.069C46.6289 33.1013 51.575 25.0821 56.29 23.0774C57.0807 22.6248 57.9617 22.3562 58.8685 22.2912C59.7754 22.2261 60.6852 22.3663 61.5315 22.7015C62.3777 23.0366 63.139 23.5583 63.7597 24.2283C64.3804 24.8983 64.8448 25.6998 65.119 26.5741C66.7076 29.9862 67.6334 33.6737 67.8463 37.4372H67.7076Z" fill="#2598D2"/>
<path d="M132.538 52.0998C132.283 51.2598 131.994 50.3965 131.67 49.5098C131.369 48.6231 131.069 47.7365 130.768 46.8498H121.399C121.098 47.7365 120.785 48.6231 120.462 49.5098C120.161 50.3965 119.883 51.2598 119.629 52.0998H114.007C114.909 49.4865 115.765 47.0715 116.575 44.8548C117.385 42.6381 118.171 40.5498 118.935 38.5898C119.721 36.6298 120.485 34.7748 121.225 33.0248C121.988 31.2515 122.775 29.5248 123.585 27.8448H128.755C129.542 29.5248 130.317 31.2515 131.08 33.0248C131.844 34.7748 132.607 36.6298 133.371 38.5898C134.157 40.5498 134.955 42.6381 135.765 44.8548C136.575 47.0715 137.431 49.4865 138.333 52.0998H132.538ZM126.049 33.3398C125.933 33.6898 125.759 34.1681 125.528 34.7748C125.297 35.3815 125.031 36.0815 124.73 36.8748C124.429 37.6681 124.094 38.5431 123.724 39.4998C123.377 40.4565 123.018 41.4598 122.648 42.5098H129.484C129.114 41.4598 128.755 40.4565 128.408 39.4998C128.061 38.5431 127.726 37.6681 127.402 36.8748C127.101 36.0815 126.835 35.3815 126.604 34.7748C126.372 34.1681 126.187 33.6898 126.049 33.3398Z" fill="#333333"/>
<path d="M157.512 47.4098V52.0998H141.446V27.8448H146.859V47.4098H157.512Z" fill="#333333"/>
<path d="M168.217 27.5648C171.803 27.5648 174.556 28.2065 176.476 29.4898C178.396 30.7498 179.356 32.8265 179.356 35.7198C179.356 38.6365 178.385 40.7481 176.441 42.0548C174.498 43.3381 171.722 43.9798 168.113 43.9798H166.413V52.0998H160.999V28.1948C162.179 27.9615 163.428 27.7981 164.747 27.7048C166.066 27.6115 167.222 27.5648 168.217 27.5648ZM168.564 32.2198C168.171 32.2198 167.778 32.2315 167.384 32.2548C167.014 32.2781 166.69 32.3015 166.413 32.3248V39.3248H168.113C169.987 39.3248 171.398 39.0681 172.347 38.5548C173.295 38.0415 173.769 37.0848 173.769 35.6848C173.769 35.0081 173.642 34.4481 173.388 34.0048C173.156 33.5615 172.809 33.2115 172.347 32.9548C171.907 32.6748 171.363 32.4881 170.716 32.3948C170.068 32.2781 169.351 32.2198 168.564 32.2198Z" fill="#333333"/>
<path d="M197.837 27.8448H203.25V52.0998H197.837V41.8098H188.745V52.0998H183.331V27.8448H188.745V37.1198H197.837V27.8448Z" fill="#333333"/>
<path d="M224.917 52.0998C224.662 51.2598 224.373 50.3965 224.049 49.5098C223.749 48.6231 223.448 47.7365 223.147 46.8498H213.778C213.477 47.7365 213.165 48.6231 212.841 49.5098C212.54 50.3965 212.262 51.2598 212.008 52.0998H206.386C207.289 49.4865 208.144 47.0715 208.954 44.8548C209.764 42.6381 210.55 40.5498 211.314 38.5898C212.1 36.6298 212.864 34.7748 213.604 33.0248C214.368 31.2515 215.154 29.5248 215.964 27.8448H221.134C221.921 29.5248 222.696 31.2515 223.459 33.0248C224.223 34.7748 224.986 36.6298 225.75 38.5898C226.536 40.5498 227.334 42.6381 228.144 44.8548C228.954 47.0715 229.81 49.4865 230.712 52.0998H224.917ZM218.428 33.3398C218.312 33.6898 218.139 34.1681 217.907 34.7748C217.676 35.3815 217.41 36.0815 217.109 36.8748C216.808 37.6681 216.473 38.5431 216.103 39.4998C215.756 40.4565 215.397 41.4598 215.027 42.5098H221.863C221.493 41.4598 221.134 40.4565 220.787 39.4998C220.44 38.5431 220.105 37.6681 219.781 36.8748C219.48 36.0815 219.214 35.3815 218.983 34.7748C218.752 34.1681 218.566 33.6898 218.428 33.3398Z" fill="#333333"/>
</svg>
