<svg width="16" height="12" viewBox="0 0 16 12" fill="none" xmlns="http://www.w3.org/2000/svg">
<path d="M8 9C7.48344 9 6.96687 8.83056 6.52625 8.48719L0 3.4125V10.5C0 11.3281 0.671562 12 1.5 12H14.5C15.3284 12 16 11.3284 16 10.5V3.4125L9.475 8.49063C9.03438 8.83125 8.51562 9 8 9ZM0.509063 2.54063L7.14031 7.7C7.64625 8.09375 8.355 8.09375 8.86094 7.7L15.4922 2.54063C15.7844 2.29063 16 1.90625 16 1.5C16 0.671562 15.3281 0 14.5 0H1.5C0.671562 0 0 0.671562 0 1.5C0 1.90625 0.187813 2.29063 0.509063 2.54063Z" fill="white"/>
</svg>
