<svg width="68" height="56" viewBox="0 0 68 56" fill="none" xmlns="http://www.w3.org/2000/svg">
<rect width="68" height="56" rx="4" fill="#F2F4F7"/>
<path fill-rule="evenodd" clip-rule="evenodd" d="M64 0H4C1.79086 0 0 1.79086 0 4V52C0 54.2091 1.79086 56 4 56H64C66.2091 56 68 54.2091 68 52V4C68 1.79086 66.2091 0 64 0ZM4 52V4H64V52H4Z" fill="#A6ACB3"/>
<path fill-rule="evenodd" clip-rule="evenodd" d="M11 16.5C11 20.6421 14.3579 24 18.5 24C22.6421 24 26 20.6421 26 16.5C26 12.3579 22.6421 9 18.5 9C14.3579 9 11 12.3579 11 16.5ZM22 16.5C22 18.433 20.433 20 18.5 20C16.567 20 15 18.433 15 16.5C15 14.567 16.567 13 18.5 13C20.433 13 22 14.567 22 16.5Z" fill="#A6ACB3"/>
<path d="M14.4081 47.4203C13.6237 48.198 12.3574 48.1925 11.5797 47.4081C10.802 46.6237 10.8075 45.3573 11.5919 44.5797L28.0413 28.2719L37.3126 36.3361C38.146 37.061 38.2339 38.3243 37.509 39.1577C36.7841 39.9911 35.5209 40.0791 34.6874 39.3542L28.2192 33.7281L14.4081 47.4203Z" fill="#A6ACB3"/>
<path d="M29.4143 47.4142C28.6333 48.1953 27.3669 48.1953 26.5858 47.4143C25.8048 46.6333 25.8047 45.367 26.5857 44.5859L52.9084 18.2609L67.3191 30.9053C68.1493 31.6338 68.2318 32.8974 67.5033 33.7277C66.7748 34.5579 65.5112 34.6404 64.6809 33.9119L53.0872 23.7392L29.4143 47.4142Z" fill="#A6ACB3"/>
</svg>
