<svg width="62" height="62" viewBox="0 0 62 62" fill="none" xmlns="http://www.w3.org/2000/svg">
<path d="M0 0H61.7305V61.9112H0V0Z" fill="white" fill-opacity="0.01"/>
<path d="M30.8665 25.7972C36.5487 25.7972 41.1549 21.1774 41.1549 15.4787C41.1549 9.77992 36.5487 5.16016 30.8665 5.16016C25.1844 5.16016 20.5781 9.77992 20.5781 15.4787C20.5781 21.1774 25.1844 25.7972 30.8665 25.7972Z" fill="#EDEDED" stroke="#224386" stroke-width="4" stroke-linecap="round" stroke-linejoin="round"/>
<path d="M54.0146 56.7538C54.0146 43.9316 43.6505 33.5371 30.8657 33.5371C18.081 33.5371 7.7168 43.9316 7.7168 56.7538" fill="#EDEDED"/>
<path d="M54.0146 56.7538C54.0146 43.9316 43.6505 33.5371 30.8657 33.5371C18.081 33.5371 7.7168 43.9316 7.7168 56.7538" stroke="#224386" stroke-width="4" stroke-linecap="round" stroke-linejoin="round"/>
<path d="M30.8649 56.7538L36.0091 50.3047L30.8649 33.5371L25.7207 50.3047L30.8649 56.7538Z" fill="#EDEDED" stroke="#224386" stroke-width="4" stroke-linecap="round" stroke-linejoin="round"/>
</svg>
